<svg width="24" height="24" viewBox="0 0 24 24" fill="none" xmlns="http://www.w3.org/2000/svg">
<path d="M24 12C24 5.37258 18.6274 0 12 0C5.37258 0 0 5.37258 0 12C0 18.6274 5.37258 24 12 24C18.6274 24 24 18.6274 24 12Z" fill="url(#paint0_linear_403_14122)"/>
<path d="M12.4922 17H11.2442C11.1042 17 10.9882 16.966 10.8962 16.898C10.8082 16.826 10.7442 16.738 10.7042 16.634L10.0562 14.864H6.46223L5.81423 16.634C5.78223 16.726 5.71823 16.81 5.62223 16.886C5.53023 16.962 5.41623 17 5.28023 17H4.02623L7.43423 8.324H9.08423L12.4922 17ZM6.87623 13.724H9.64223L8.58623 10.838C8.53823 10.71 8.48423 10.56 8.42423 10.388C8.36823 10.212 8.31223 10.022 8.25623 9.818C8.20023 10.022 8.14423 10.212 8.08823 10.388C8.03623 10.564 7.98423 10.718 7.93223 10.85L6.87623 13.724ZM15.0538 13.946V17H13.4398V8.324H16.2658C16.8458 8.324 17.3478 8.392 17.7718 8.528C18.1958 8.664 18.5458 8.854 18.8218 9.098C19.0978 9.342 19.3018 9.634 19.4338 9.974C19.5658 10.314 19.6318 10.686 19.6318 11.09C19.6318 11.51 19.5618 11.896 19.4218 12.248C19.2818 12.596 19.0718 12.896 18.7918 13.148C18.5118 13.4 18.1618 13.596 17.7418 13.736C17.3218 13.876 16.8298 13.946 16.2658 13.946H15.0538ZM15.0538 12.686H16.2658C16.5618 12.686 16.8198 12.65 17.0398 12.578C17.2598 12.502 17.4418 12.396 17.5858 12.26C17.7298 12.12 17.8378 11.952 17.9098 11.756C17.9818 11.556 18.0178 11.334 18.0178 11.09C18.0178 10.858 17.9818 10.648 17.9098 10.46C17.8378 10.272 17.7298 10.112 17.5858 9.98C17.4418 9.848 17.2598 9.748 17.0398 9.68C16.8198 9.608 16.5618 9.572 16.2658 9.572H15.0538V12.686Z" fill="white"/>
<defs>
<linearGradient id="paint0_linear_403_14122" x1="6.624" y1="3.072" x2="19.392" y2="22.08" gradientUnits="userSpaceOnUse">
<stop stop-color="#FFF25D"/>
<stop offset="0.251" stop-color="#F8AF0F"/>
<stop offset="0.585" stop-color="#F8AF0F"/>
<stop offset="0.813" stop-color="#FF8344"/>
<stop offset="1" stop-color="#D1596B"/>
</linearGradient>
</defs>
</svg>
